<svg version="1.1" id="Layer_1" xmlns="http://www.w3.org/2000/svg" xmlns:xlink="http://www.w3.org/1999/xlink" x="0px" y="0px"
	 width="100%" viewBox="0 0 125 125" enable-background="new 0 0 125 125" xml:space="preserve">
<path fill="#000000" opacity="1.000000" stroke="none" 
	d="
M31.000000,126.000000 
	C21.010206,126.000000 11.020411,126.000000 1.015308,126.000000 
	C1.015308,84.386070 1.015308,42.772125 1.015308,1.079093 
	C42.571289,1.079093 84.142769,1.079093 125.857124,1.079093 
	C125.857124,42.666317 125.857124,84.333092 125.857124,126.000000 
	C118.255020,126.000000 110.596199,126.000000 102.290634,125.610367 
	C102.430473,120.926468 103.768486,116.648476 103.895721,112.334763 
	C104.220016,101.339737 104.003677,90.328773 104.003677,79.324181 
	C105.150528,83.445358 104.944038,87.624619 105.284393,91.758873 
	C105.378662,92.903954 107.097771,93.915268 108.071396,94.987961 
	C109.017952,93.935570 110.872070,92.786140 110.771523,91.845688 
	C109.693634,81.763573 108.310776,71.713966 107.002869,61.656574 
	C106.490120,57.713654 105.208672,54.807034 100.299408,54.891659 
	C97.245186,54.944309 95.373398,53.483154 96.991112,49.765320 
	C97.800278,47.905651 98.102242,45.591705 97.878838,43.566490 
	C97.455238,39.726536 94.861443,37.662930 91.055534,38.094395 
	C87.606232,38.485428 84.413574,39.954914 85.064758,44.325043 
	C85.581810,47.795010 86.655487,51.182034 87.535690,54.828197 
	C81.426643,53.910168 80.503227,58.060722 79.937363,62.858906 
	C79.614311,65.598167 78.651413,68.261978 77.976616,70.959763 
	C77.452278,71.182091 76.927933,71.404419 76.403595,71.626755 
	C73.663582,68.407227 69.761284,65.608757 68.412376,61.885284 
	C65.039841,52.575756 61.946846,42.983860 60.424770,33.242290 
	C59.203949,25.428797 55.691704,21.940348 47.813683,21.715565 
	C48.236813,17.736998 49.424522,14.014528 48.742641,10.673645 
	C48.176163,7.898155 45.891853,4.650887 43.447952,3.372690 
	C41.842720,2.533128 37.645176,4.103084 36.308304,5.875823 
	C34.134544,8.758297 32.865719,12.557528 35.056858,16.501932 
	C35.844814,17.920380 35.787560,19.808344 36.209808,21.959827 
	C30.167536,21.305531 27.988129,24.397158 26.866476,29.099762 
	C25.585550,34.470127 23.467924,39.666241 22.492970,45.078415 
	C20.983547,53.457520 19.885509,61.935867 19.213215,70.419693 
	C19.076824,72.140839 21.603447,74.072998 22.902397,75.907883 
	C24.190491,74.070084 26.051332,72.402390 26.657307,70.362007 
	C28.350092,64.662216 29.523447,58.808155 30.901831,53.014984 
	C31.946924,54.728832 32.392372,56.397396 31.875896,57.678005 
	C28.017504,67.244934 29.985329,77.342453 29.128822,87.163460 
	C28.476921,94.638382 29.006367,102.215599 28.987471,109.747246 
	C28.984566,110.905235 29.322041,112.660942 28.718571,113.128143 
	C22.743515,117.753860 27.523872,120.600365 30.261911,123.866516 
	C30.713579,124.405296 30.764095,125.280350 31.000000,126.000000 
z"/>
<path fill="#808080" opacity="1.000000" stroke="none" 
	d="
M31.375000,126.000000 
	C30.764095,125.280350 30.713579,124.405296 30.261911,123.866516 
	C27.523872,120.600365 22.743515,117.753860 28.718571,113.128143 
	C29.322041,112.660942 28.984566,110.905235 28.987471,109.747246 
	C29.006367,102.215599 28.476921,94.638382 29.128822,87.163460 
	C29.985329,77.342453 28.017504,67.244934 31.875896,57.678005 
	C32.392372,56.397396 31.946924,54.728832 30.901831,53.014984 
	C29.523447,58.808155 28.350092,64.662216 26.657307,70.362007 
	C26.051332,72.402390 24.190491,74.070084 22.902397,75.907883 
	C21.603447,74.072998 19.076824,72.140839 19.213215,70.419693 
	C19.885509,61.935867 20.983547,53.457520 22.492970,45.078415 
	C23.467924,39.666241 25.585550,34.470127 26.866476,29.099762 
	C27.988129,24.397158 30.167536,21.305531 36.209808,21.959827 
	C35.787560,19.808344 35.844814,17.920380 35.056858,16.501932 
	C32.865719,12.557528 34.134544,8.758297 36.308304,5.875823 
	C37.645176,4.103084 41.842720,2.533128 43.447952,3.372690 
	C45.891853,4.650887 48.176163,7.898155 48.742641,10.673645 
	C49.424522,14.014528 48.236813,17.736998 47.813683,21.715565 
	C55.691704,21.940348 59.203949,25.428797 60.424770,33.242290 
	C61.946846,42.983860 65.039841,52.575756 68.412376,61.885284 
	C69.761284,65.608757 73.663582,68.407227 76.403595,71.626755 
	C76.927933,71.404419 77.452278,71.182091 77.976616,70.959763 
	C78.651413,68.261978 79.614311,65.598167 79.937363,62.858906 
	C80.503227,58.060722 81.426643,53.910168 87.535690,54.828197 
	C86.655487,51.182034 85.581810,47.795010 85.064758,44.325043 
	C84.413574,39.954914 87.606232,38.485428 91.055534,38.094395 
	C94.861443,37.662930 97.455238,39.726536 97.878838,43.566490 
	C98.102242,45.591705 97.800278,47.905651 96.991112,49.765320 
	C95.373398,53.483154 97.245186,54.944309 100.299408,54.891659 
	C105.208672,54.807034 106.490120,57.713654 107.002869,61.656574 
	C108.310776,71.713966 109.693634,81.763573 110.771523,91.845688 
	C110.872070,92.786140 109.017952,93.935570 108.071396,94.987961 
	C107.097771,93.915268 105.378662,92.903954 105.284393,91.758873 
	C104.944038,87.624619 105.150528,83.445358 104.003677,79.324181 
	C104.003677,90.328773 104.220016,101.339737 103.895721,112.334763 
	C103.768486,116.648476 102.430473,120.926468 101.821938,125.610367 
	C100.933327,126.000000 99.866661,126.000000 98.730453,125.738571 
	C97.303078,122.994049 92.759155,122.311974 94.436493,118.122513 
	C96.644623,112.607323 94.876129,107.369484 93.783920,101.682610 
	C89.922638,109.693062 94.573112,118.791580 89.000000,126.000000 
	C87.611107,126.000000 86.222221,126.000000 84.755302,125.742683 
	C83.457199,123.275696 80.664322,119.889709 81.286469,119.057846 
	C84.138512,115.244492 81.737633,111.577209 81.950172,107.938797 
	C82.545845,97.741943 82.897728,87.530861 83.356163,77.088974 
	C75.035110,81.852524 71.084770,73.227432 64.907761,71.883568 
	C58.431988,70.474709 60.073139,60.081680 53.662685,55.563786 
	C54.525429,60.106125 55.539795,63.894341 55.917141,67.744980 
	C56.801537,76.769760 57.832317,85.817825 57.964748,94.868744 
	C58.116482,105.238899 57.361217,115.622337 57.000000,126.000000 
	C55.611111,126.000000 54.222221,126.000000 52.741524,125.731003 
	C51.157558,124.513123 49.182663,123.882927 48.293461,122.535995 
	C47.140034,120.788795 45.838146,116.994720 46.355495,116.639702 
	C49.563160,114.438499 48.832920,112.003273 48.080662,109.041565 
	C47.364162,106.220619 47.609306,103.157341 46.909920,100.329643 
	C46.033855,96.787636 44.625607,93.377251 43.447067,89.910057 
	C41.664799,93.814217 40.830292,97.273956 40.006096,100.736145 
	C38.001511,109.156822 36.001720,117.578644 34.000000,126.000000 
	C33.250000,126.000000 32.500000,126.000000 31.375000,126.000000 
z"/>
<path fill="#000000" opacity="1.000000" stroke="none" 
	d="
M57.468655,126.000000 
	C57.361217,115.622337 58.116482,105.238899 57.964748,94.868744 
	C57.832317,85.817825 56.801537,76.769760 55.917141,67.744980 
	C55.539795,63.894341 54.525429,60.106125 53.662685,55.563786 
	C60.073139,60.081680 58.431988,70.474709 64.907761,71.883568 
	C71.084770,73.227432 75.035110,81.852524 83.356163,77.088974 
	C82.897728,87.530861 82.545845,97.741943 81.950172,107.938797 
	C81.737633,111.577209 84.138512,115.244492 81.286469,119.057846 
	C80.664322,119.889709 83.457199,123.275696 84.338638,125.742683 
	C75.312439,126.000000 66.624870,126.000000 57.468655,126.000000 
z"/>
<path fill="#000000" opacity="1.000000" stroke="none" 
	d="
M34.467941,126.000000 
	C36.001720,117.578644 38.001511,109.156822 40.006096,100.736145 
	C40.830292,97.273956 41.664799,93.814217 43.447067,89.910057 
	C44.625607,93.377251 46.033855,96.787636 46.909920,100.329643 
	C47.609306,103.157341 47.364162,106.220619 48.080662,109.041565 
	C48.832920,112.003273 49.563160,114.438499 46.355495,116.639702 
	C45.838146,116.994720 47.140034,120.788795 48.293461,122.535995 
	C49.182663,123.882927 51.157558,124.513123 52.324860,125.731003 
	C46.311958,126.000000 40.623920,126.000000 34.467941,126.000000 
z"/>
<path fill="#000000" opacity="1.000000" stroke="none" 
	d="
M89.449982,126.000000 
	C94.573112,118.791580 89.922638,109.693062 93.783920,101.682610 
	C94.876129,107.369484 96.644623,112.607323 94.436493,118.122513 
	C92.759155,122.311974 97.303078,122.994049 98.330460,125.738571 
	C95.299988,126.000000 92.599968,126.000000 89.449982,126.000000 
z"/>
</svg>