<svg version="1.1" id="Layer_1" xmlns="http://www.w3.org/2000/svg" xmlns:xlink="http://www.w3.org/1999/xlink" x="0px" y="0px"
	 width="100%" viewBox="0 0 725 725" enable-background="new 0 0 725 725" xml:space="preserve">
<path fill="#000000" opacity="1.000000" stroke="none" 
	d="
M506.000000,726.000000 
	C337.333344,726.000000 169.166672,726.000000 1.000000,726.000000 
	C1.000000,484.333344 1.000000,242.666672 1.000000,1.000000 
	C242.666672,1.000000 484.333344,1.000000 726.000000,1.000000 
	C726.000000,242.666672 726.000000,484.333344 726.000000,726.000000 
	C652.833313,726.000000 579.666687,726.000000 506.000000,726.000000 
M525.002991,645.810852 
	C525.009888,643.279602 524.947815,640.745789 525.042053,638.217773 
	C525.146423,635.418030 525.283936,632.611206 525.598816,629.829163 
	C526.687317,620.212341 527.923706,610.611938 528.971375,600.990906 
	C529.470093,596.410889 528.996765,591.616882 530.174500,587.246033 
	C531.685547,581.637939 534.415344,576.358276 536.838135,570.400818 
	C539.111328,576.888306 540.856079,582.410217 542.974854,587.784607 
	C545.987366,595.426025 548.648560,602.996033 548.027039,611.499084 
	C547.581299,617.596680 546.752380,624.259155 548.645508,629.797607 
	C551.566895,638.344299 553.036987,646.762573 553.084412,655.688538 
	C553.118042,662.018860 553.922852,668.345032 554.387634,674.730164 
	C542.225708,680.882751 544.339600,698.047913 551.768372,704.329529 
	C554.878601,706.959473 558.208618,709.329407 561.322449,711.955383 
	C567.316833,717.010681 574.500122,717.457031 581.167236,715.184937 
	C588.543884,712.671082 592.437195,706.560486 592.006042,698.316833 
	C591.660400,691.709045 590.846252,685.071411 591.181458,678.494995 
	C591.697021,668.382263 593.748596,658.317566 593.844971,648.220093 
	C594.035400,628.282043 593.178528,608.336365 593.066284,588.392090 
	C593.012329,578.787903 593.955383,569.178833 593.927368,559.573486 
	C593.891052,547.134399 593.369934,534.695862 592.984070,522.259277 
	C592.862244,518.331848 592.053894,514.377380 592.349854,510.495483 
	C592.946045,502.675964 594.692200,494.910431 594.854858,487.099518 
	C595.089355,475.838470 594.297668,464.557770 594.023438,453.283508 
	C593.910645,448.646332 594.004700,444.004120 594.004700,439.248962 
	C595.823608,439.122467 597.262390,439.022430 597.294189,439.020203 
	C601.929871,444.923279 605.997192,450.102600 610.212036,455.469788 
	C609.506226,463.322815 607.918396,471.970184 608.172852,480.562988 
	C608.457092,490.162415 610.480225,499.704498 611.603149,509.288330 
	C611.969543,512.415039 613.055542,516.203491 611.788940,518.635254 
	C608.039490,525.833679 609.553223,532.543213 612.209167,539.283081 
	C612.921753,541.091309 613.844421,543.762939 617.135315,542.942261 
	C620.430481,542.120483 623.891479,541.907104 627.129272,540.928894 
	C629.760071,540.134033 634.212219,538.740479 634.304932,537.371826 
	C634.627319,532.612061 636.961243,527.247803 633.065002,522.928406 
	C630.004822,519.535889 627.877808,516.215881 629.633362,511.392426 
	C630.388977,509.316193 630.703308,506.972443 630.712524,504.748169 
	C630.792908,485.249908 630.771484,465.751129 630.729736,446.252625 
	C630.727112,445.017944 630.481384,443.717102 630.045837,442.561127 
	C627.565979,435.978180 624.893616,429.465332 622.554138,422.834290 
	C622.173523,421.755493 622.740906,419.378418 623.528076,419.011017 
	C627.954346,416.945282 626.822327,414.019043 625.391968,410.759674 
	C624.682922,409.144104 624.178223,407.399445 623.850830,405.662354 
	C621.986694,395.772003 621.787292,385.206329 618.003540,376.128296 
	C612.960693,364.029144 614.677368,350.988220 610.091187,338.903137 
	C607.138916,331.123871 597.925415,319.180756 589.930054,318.037018 
	C583.003723,317.046143 575.996338,316.598755 569.016479,316.009491 
	C553.634644,314.710846 546.176880,301.292145 553.686523,287.625549 
	C555.021057,285.196899 555.926208,282.534485 557.067200,279.996918 
	C561.913147,269.219391 559.715637,257.802063 559.900452,246.649094 
	C560.078857,235.885376 554.066345,228.279816 545.185486,223.136322 
	C537.865540,218.896927 529.528564,218.670944 521.257996,219.007385 
	C510.478607,219.445831 501.980988,225.182449 496.166107,233.211609 
	C487.760651,244.817825 492.444427,258.604462 492.976898,271.501190 
	C493.172882,276.247772 494.360748,281.295959 496.456482,285.533905 
	C499.021484,290.720886 503.076965,295.159180 506.375610,299.997772 
	C510.891785,306.622223 508.934326,314.393799 502.311462,315.751556 
	C498.624390,316.507446 494.780212,317.075592 491.046326,316.898010 
	C484.285919,316.576447 478.435272,319.045105 472.861023,322.198608 
	C471.118683,323.184265 469.599243,325.616241 469.149323,327.645874 
	C467.492920,335.118256 466.403625,342.714172 464.949036,350.234253 
	C464.118591,354.527435 462.380768,358.728088 462.130615,363.033142 
	C461.619110,371.834900 460.343353,380.160858 455.129333,387.665283 
	C451.504669,392.882233 452.120636,394.953705 457.103668,399.480804 
	C455.537659,401.708740 453.899384,403.941895 452.367310,406.245697 
	C450.743591,408.687317 449.579590,412.786926 447.556427,413.243164 
	C445.386292,413.732574 442.546265,410.596436 439.829132,409.440857 
	C432.204529,406.198120 424.464874,403.226044 416.839935,399.984070 
	C415.401306,399.372375 413.568542,398.247711 413.134308,396.952026 
	C410.688660,389.654633 408.624603,382.229675 406.395233,374.858856 
	C406.218903,374.275848 405.450745,373.738464 405.505035,373.239441 
	C406.155121,367.265717 400.777618,364.603333 396.143951,363.916290 
	C394.503937,363.673187 392.971863,362.591919 391.434052,361.807892 
	C390.403564,361.282471 389.420563,360.648712 388.468109,359.988678 
	C386.781433,358.819855 384.140137,357.878693 383.696136,356.327637 
	C382.973907,353.804779 383.852386,351.053009 387.204132,350.095062 
	C388.513885,349.720734 389.641693,348.709991 390.438080,348.235809 
	C388.094330,342.302032 386.109680,336.724396 383.702179,331.335632 
	C381.224091,325.788788 377.879456,320.599945 375.717133,314.947235 
	C371.034882,302.707123 366.643250,290.343170 362.584442,277.882751 
	C360.685364,272.052551 361.378998,264.846680 358.186768,260.079498 
	C351.543762,250.158859 352.791595,238.829849 350.118927,228.272690 
	C348.209839,220.731659 348.321381,212.589035 345.801636,205.313919 
	C342.102692,194.634171 341.361145,183.682220 339.762360,172.720474 
	C338.717377,165.555740 335.659821,158.610199 332.920105,151.801300 
	C331.719177,148.816650 329.461365,145.947006 326.985779,143.847992 
	C321.257446,138.991089 315.728302,132.721939 308.978271,130.519135 
	C298.441010,127.080421 286.811768,127.923836 275.941406,124.218788 
	C268.335632,121.626419 268.964203,122.469276 267.803101,114.593369 
	C265.213196,97.026062 273.822174,81.239433 274.771515,64.076057 
	C275.591095,49.258186 267.897400,26.360453 255.117355,19.149195 
	C240.217163,10.741600 224.803192,13.363347 213.962357,23.801762 
	C204.224945,33.177711 199.282410,45.270134 199.021347,58.981022 
	C198.899643,65.373108 198.853104,71.774605 199.077179,78.161156 
	C199.160522,80.536598 199.638687,83.138290 200.751358,85.196457 
	C205.905701,94.730659 209.359177,104.470856 208.109177,115.651390 
	C207.200424,123.779465 205.516296,125.921341 197.897034,125.531570 
	C197.484131,125.510445 196.959839,125.653992 196.651031,125.914703 
	C192.325699,129.566116 187.145905,129.125351 182.039337,128.997192 
	C173.197189,128.775314 166.704895,132.852997 164.070480,141.038025 
	C158.986664,156.833267 147.599747,170.251221 146.646790,187.562927 
	C146.622391,188.005859 146.175858,188.409454 146.020081,188.863602 
	C141.616745,201.701462 137.230164,214.545074 132.826523,227.382828 
	C132.252304,229.056808 131.006653,230.730820 131.079926,232.359451 
	C131.586273,243.612701 130.591415,254.696854 127.984749,265.642700 
	C126.382973,272.368866 127.128502,279.415588 123.220139,285.924438 
	C120.528809,290.406464 120.038155,296.325500 119.057877,301.692474 
	C117.563332,309.875031 116.740379,318.182495 115.174530,326.349152 
	C113.771027,333.669067 110.877411,340.792725 110.221687,348.143921 
	C109.404877,357.301147 108.691498,366.332123 105.441811,375.016785 
	C103.874016,379.206665 105.661797,381.676758 110.129471,382.020660 
	C111.658051,382.138306 113.166702,382.514954 114.997337,382.826508 
	C113.271187,386.662476 111.291702,389.752350 110.529015,393.117981 
	C109.738464,396.606567 109.841438,400.382050 110.090675,403.994995 
	C110.288254,406.859100 112.010384,409.719086 111.809021,412.490356 
	C111.253960,420.129120 114.493431,424.475189 121.165970,428.155762 
	C125.663101,430.636353 130.089722,430.808014 133.755035,429.451355 
	C140.044205,427.123535 148.247299,413.765533 145.626343,405.691895 
	C143.915970,400.423279 140.859024,393.751465 148.716278,389.815216 
	C148.987900,389.679138 148.809525,388.817841 149.060593,388.440857 
	C151.599899,384.628357 151.504257,380.238953 152.331161,375.950378 
	C154.620850,364.075256 157.966522,352.407562 160.615250,340.595215 
	C161.330246,337.406616 160.320297,333.745514 161.351395,330.728210 
	C166.013535,317.085327 171.050369,303.567932 176.129929,290.072235 
	C177.232529,287.142761 179.066940,284.488739 180.564285,281.707886 
	C181.119583,281.870758 181.674881,282.033630 182.230179,282.196503 
	C182.486969,287.059296 182.912064,291.920258 182.965759,296.785309 
	C183.079788,307.116608 183.674866,317.507812 182.797226,327.765289 
	C182.029373,336.739716 179.851196,345.648010 177.669006,354.429657 
	C175.923798,361.452820 172.478195,368.100586 171.161026,375.170898 
	C169.555313,383.789856 169.387390,392.676697 168.761627,399.626038 
	C171.324005,402.948273 174.568893,405.228333 174.682144,407.654572 
	C175.059311,415.735199 174.318741,423.868530 173.987259,431.980865 
	C173.953796,432.799957 173.801102,433.615356 173.684006,434.429657 
	C172.458496,442.951080 171.020309,451.448486 170.059448,459.999573 
	C169.106003,468.484650 168.741058,477.034119 167.917603,485.535950 
	C167.068558,494.302032 165.427048,503.024567 165.105988,511.801758 
	C164.408249,530.875854 164.145462,549.971985 164.068878,569.060547 
	C164.023010,580.498596 164.607544,591.941406 165.022293,603.377991 
	C165.213226,608.642883 165.599594,613.904358 166.032303,619.156250 
	C166.975220,630.600403 167.999039,642.037842 169.002518,653.476990 
	C169.271515,656.543213 167.928223,657.370728 164.891769,658.246826 
	C160.952072,659.383423 156.805405,661.566772 153.993225,664.495361 
	C147.262024,671.505310 148.988007,679.793579 153.223083,687.174011 
	C156.795670,693.399841 161.619156,698.936707 166.139206,704.578064 
	C168.445801,707.456726 170.902145,710.579529 173.995041,712.386780 
	C180.023453,715.909241 186.731903,716.614197 193.206619,713.342590 
	C199.509155,710.158081 202.139359,704.777283 202.116470,697.682190 
	C202.105759,694.361511 203.311478,691.029419 204.025482,687.715332 
	C206.000977,678.546021 208.162384,669.413757 209.959671,660.210022 
	C211.834213,650.610657 213.296768,640.931641 215.079254,631.313354 
	C216.258621,624.949646 219.218109,618.504456 218.704971,612.317627 
	C217.305099,595.439880 225.412247,580.407776 226.702759,564.109619 
	C227.137115,558.624207 231.128983,553.370850 231.331650,547.930786 
	C231.533264,542.518311 234.556931,538.017395 233.796921,531.933960 
	C233.090668,526.280823 238.096420,519.827759 240.945145,513.898743 
	C241.442719,512.863159 244.296051,511.764709 245.061646,512.255371 
	C248.762115,514.626770 253.512589,516.838379 255.287369,520.402893 
	C258.231659,526.316345 259.273163,533.198608 260.941467,539.717468 
	C261.862000,543.314331 262.173004,547.075867 263.205536,550.633484 
	C265.258575,557.707092 267.826965,564.633911 269.791870,571.729553 
	C271.472717,577.799500 273.637268,583.999146 273.765717,590.179382 
	C274.016357,602.238403 276.130463,613.627136 279.500977,625.259277 
	C282.274323,634.830505 281.453583,645.480347 281.926971,655.666077 
	C282.189240,661.309448 278.386780,663.603760 273.463989,665.100830 
	C271.064392,665.830505 268.633392,667.471558 266.944214,669.353210 
	C257.913025,679.413269 264.781036,693.003540 272.371674,698.650452 
	C279.194489,703.726196 287.159332,707.253662 294.070618,712.227966 
	C299.501007,716.136292 305.092529,717.273071 311.533661,717.082092 
	C321.517853,716.786194 327.983063,710.508667 327.995941,700.372986 
	C328.009308,689.842041 327.512909,679.283997 328.104919,668.786560 
	C329.011719,652.706970 331.671875,636.675232 331.766815,620.612427 
	C331.926544,593.592407 331.098145,566.543335 329.832458,539.546387 
	C328.987122,521.515747 326.290924,503.578705 325.112244,485.554688 
	C324.056519,469.410614 324.783600,453.145203 319.096893,437.546570 
	C315.950623,428.916412 313.905884,419.878723 310.634399,411.303314 
	C309.454254,408.209778 309.315033,406.345459 311.538177,404.058960 
	C317.491119,397.936432 316.355408,389.616150 314.137573,383.539978 
	C312.147400,378.087555 312.134369,372.786438 311.141449,367.500214 
	C309.308899,357.744080 309.609589,347.403870 306.542053,338.126831 
	C304.460663,331.832275 304.774078,326.585571 305.997925,320.721283 
	C307.052643,315.667358 307.905212,310.571228 308.991638,304.714996 
	C310.485321,306.139435 311.257904,306.602356 311.643799,307.284149 
	C321.969604,325.529266 332.281738,343.782227 342.513855,362.079956 
	C343.726440,364.248352 344.473480,366.031616 347.650177,366.436859 
	C349.261902,366.642456 351.329987,370.051544 351.627686,372.226471 
	C352.103027,375.699493 350.755890,379.402161 351.102509,382.916687 
	C351.883423,390.833862 353.235901,398.473145 359.010742,404.911530 
	C363.531830,409.952087 369.333679,411.095581 375.108459,413.230408 
	C381.809845,415.707733 387.705383,415.823334 393.248840,410.820679 
	C401.432678,417.611389 408.906738,424.923981 417.462830,430.607666 
	C426.445221,436.574615 436.526123,440.869263 446.009552,446.107208 
	C452.519928,449.703033 463.401276,448.651794 467.436432,442.234039 
	C470.253998,437.752777 473.808289,433.734741 477.390808,429.041779 
	C477.996552,433.322754 478.750977,436.810913 478.942352,440.329712 
	C479.722534,454.674011 480.249847,469.032074 481.030334,483.376343 
	C481.542206,492.784058 482.044159,502.247528 487.178986,509.102600 
	C484.174133,515.664368 480.378723,521.120728 479.220673,527.088806 
	C477.018158,538.439575 475.381531,550.068420 475.202820,561.607971 
	C474.852997,584.192566 475.665985,606.795166 475.996796,629.390320 
	C476.004120,629.890137 475.959991,630.394043 476.007812,630.889465 
	C476.999908,641.164490 477.996490,651.439148 479.004974,661.712585 
	C479.301147,664.729431 479.636597,667.742432 479.907532,670.315369 
	C476.559906,673.605652 472.594635,676.454468 470.012817,680.245544 
	C463.399689,689.956177 471.713715,706.199707 479.863678,711.642883 
	C485.031708,715.094482 492.294739,715.616028 498.731628,716.869202 
	C501.705933,717.448303 505.016174,716.974121 508.062378,716.392517 
	C519.637939,714.182495 528.000732,694.080811 522.364624,684.569641 
	C521.376587,682.902283 521.128845,680.473022 521.332764,678.476685 
	C522.415710,667.877319 523.751770,657.303772 525.002991,645.810852 
z"/>
<path fill="#7F7F7F" opacity="1.000000" stroke="none" 
	d="
M525.001587,646.266113 
	C523.751770,657.303772 522.415710,667.877319 521.332764,678.476685 
	C521.128845,680.473022 521.376587,682.902283 522.364624,684.569641 
	C528.000732,694.080811 519.637939,714.182495 508.062378,716.392517 
	C505.016174,716.974121 501.705933,717.448303 498.731628,716.869202 
	C492.294739,715.616028 485.031708,715.094482 479.863678,711.642883 
	C471.713715,706.199707 463.399689,689.956177 470.012817,680.245544 
	C472.594635,676.454468 476.559906,673.605652 479.907532,670.315369 
	C479.636597,667.742432 479.301147,664.729431 479.004974,661.712585 
	C477.996490,651.439148 476.999908,641.164490 476.007812,630.889465 
	C475.959991,630.394043 476.004120,629.890137 475.996796,629.390320 
	C475.665985,606.795166 474.852997,584.192566 475.202820,561.607971 
	C475.381531,550.068420 477.018158,538.439575 479.220673,527.088806 
	C480.378723,521.120728 484.174133,515.664368 487.178986,509.102600 
	C482.044159,502.247528 481.542206,492.784058 481.030334,483.376343 
	C480.249847,469.032074 479.722534,454.674011 478.942352,440.329712 
	C478.750977,436.810913 477.996552,433.322754 477.390808,429.041779 
	C473.808289,433.734741 470.253998,437.752777 467.436432,442.234039 
	C463.401276,448.651794 452.519928,449.703033 446.009552,446.107208 
	C436.526123,440.869263 426.445221,436.574615 417.462830,430.607666 
	C408.906738,424.923981 401.432678,417.611389 393.248840,410.820679 
	C387.705383,415.823334 381.809845,415.707733 375.108459,413.230408 
	C369.333679,411.095581 363.531830,409.952087 359.010742,404.911530 
	C353.235901,398.473145 351.883423,390.833862 351.102509,382.916687 
	C350.755890,379.402161 352.103027,375.699493 351.627686,372.226471 
	C351.329987,370.051544 349.261902,366.642456 347.650177,366.436859 
	C344.473480,366.031616 343.726440,364.248352 342.513855,362.079956 
	C332.281738,343.782227 321.969604,325.529266 311.643799,307.284149 
	C311.257904,306.602356 310.485321,306.139435 308.991638,304.714996 
	C307.905212,310.571228 307.052643,315.667358 305.997925,320.721283 
	C304.774078,326.585571 304.460663,331.832275 306.542053,338.126831 
	C309.609589,347.403870 309.308899,357.744080 311.141449,367.500214 
	C312.134369,372.786438 312.147400,378.087555 314.137573,383.539978 
	C316.355408,389.616150 317.491119,397.936432 311.538177,404.058960 
	C309.315033,406.345459 309.454254,408.209778 310.634399,411.303314 
	C313.905884,419.878723 315.950623,428.916412 319.096893,437.546570 
	C324.783600,453.145203 324.056519,469.410614 325.112244,485.554688 
	C326.290924,503.578705 328.987122,521.515747 329.832458,539.546387 
	C331.098145,566.543335 331.926544,593.592407 331.766815,620.612427 
	C331.671875,636.675232 329.011719,652.706970 328.104919,668.786560 
	C327.512909,679.283997 328.009308,689.842041 327.995941,700.372986 
	C327.983063,710.508667 321.517853,716.786194 311.533661,717.082092 
	C305.092529,717.273071 299.501007,716.136292 294.070618,712.227966 
	C287.159332,707.253662 279.194489,703.726196 272.371674,698.650452 
	C264.781036,693.003540 257.913025,679.413269 266.944214,669.353210 
	C268.633392,667.471558 271.064392,665.830505 273.463989,665.100830 
	C278.386780,663.603760 282.189240,661.309448 281.926971,655.666077 
	C281.453583,645.480347 282.274323,634.830505 279.500977,625.259277 
	C276.130463,613.627136 274.016357,602.238403 273.765717,590.179382 
	C273.637268,583.999146 271.472717,577.799500 269.791870,571.729553 
	C267.826965,564.633911 265.258575,557.707092 263.205536,550.633484 
	C262.173004,547.075867 261.862000,543.314331 260.941467,539.717468 
	C259.273163,533.198608 258.231659,526.316345 255.287369,520.402893 
	C253.512589,516.838379 248.762115,514.626770 245.061646,512.255371 
	C244.296051,511.764709 241.442719,512.863159 240.945145,513.898743 
	C238.096420,519.827759 233.090668,526.280823 233.796921,531.933960 
	C234.556931,538.017395 231.533264,542.518311 231.331650,547.930786 
	C231.128983,553.370850 227.137115,558.624207 226.702759,564.109619 
	C225.412247,580.407776 217.305099,595.439880 218.704971,612.317627 
	C219.218109,618.504456 216.258621,624.949646 215.079254,631.313354 
	C213.296768,640.931641 211.834213,650.610657 209.959671,660.210022 
	C208.162384,669.413757 206.000977,678.546021 204.025482,687.715332 
	C203.311478,691.029419 202.105759,694.361511 202.116470,697.682190 
	C202.139359,704.777283 199.509155,710.158081 193.206619,713.342590 
	C186.731903,716.614197 180.023453,715.909241 173.995041,712.386780 
	C170.902145,710.579529 168.445801,707.456726 166.139206,704.578064 
	C161.619156,698.936707 156.795670,693.399841 153.223083,687.174011 
	C148.988007,679.793579 147.262024,671.505310 153.993225,664.495361 
	C156.805405,661.566772 160.952072,659.383423 164.891769,658.246826 
	C167.928223,657.370728 169.271515,656.543213 169.002518,653.476990 
	C167.999039,642.037842 166.975220,630.600403 166.032303,619.156250 
	C165.599594,613.904358 165.213226,608.642883 165.022293,603.377991 
	C164.607544,591.941406 164.023010,580.498596 164.068878,569.060547 
	C164.145462,549.971985 164.408249,530.875854 165.105988,511.801758 
	C165.427048,503.024567 167.068558,494.302032 167.917603,485.535950 
	C168.741058,477.034119 169.106003,468.484650 170.059448,459.999573 
	C171.020309,451.448486 172.458496,442.951080 173.684006,434.429657 
	C173.801102,433.615356 173.953796,432.799957 173.987259,431.980865 
	C174.318741,423.868530 175.059311,415.735199 174.682144,407.654572 
	C174.568893,405.228333 171.324005,402.948273 168.761627,399.626038 
	C169.387390,392.676697 169.555313,383.789856 171.161026,375.170898 
	C172.478195,368.100586 175.923798,361.452820 177.669006,354.429657 
	C179.851196,345.648010 182.029373,336.739716 182.797226,327.765289 
	C183.674866,317.507812 183.079788,307.116608 182.965759,296.785309 
	C182.912064,291.920258 182.486969,287.059296 182.230179,282.196503 
	C181.674881,282.033630 181.119583,281.870758 180.564285,281.707886 
	C179.066940,284.488739 177.232529,287.142761 176.129929,290.072235 
	C171.050369,303.567932 166.013535,317.085327 161.351395,330.728210 
	C160.320297,333.745514 161.330246,337.406616 160.615250,340.595215 
	C157.966522,352.407562 154.620850,364.075256 152.331161,375.950378 
	C151.504257,380.238953 151.599899,384.628357 149.060593,388.440857 
	C148.809525,388.817841 148.987900,389.679138 148.716278,389.815216 
	C140.859024,393.751465 143.915970,400.423279 145.626343,405.691895 
	C148.247299,413.765533 140.044205,427.123535 133.755035,429.451355 
	C130.089722,430.808014 125.663101,430.636353 121.165970,428.155762 
	C114.493431,424.475189 111.253960,420.129120 111.809021,412.490356 
	C112.010384,409.719086 110.288254,406.859100 110.090675,403.994995 
	C109.841438,400.382050 109.738464,396.606567 110.529015,393.117981 
	C111.291702,389.752350 113.271187,386.662476 114.997337,382.826508 
	C113.166702,382.514954 111.658051,382.138306 110.129471,382.020660 
	C105.661797,381.676758 103.874016,379.206665 105.441811,375.016785 
	C108.691498,366.332123 109.404877,357.301147 110.221687,348.143921 
	C110.877411,340.792725 113.771027,333.669067 115.174530,326.349152 
	C116.740379,318.182495 117.563332,309.875031 119.057877,301.692474 
	C120.038155,296.325500 120.528809,290.406464 123.220139,285.924438 
	C127.128502,279.415588 126.382973,272.368866 127.984749,265.642700 
	C130.591415,254.696854 131.586273,243.612701 131.079926,232.359451 
	C131.006653,230.730820 132.252304,229.056808 132.826523,227.382828 
	C137.230164,214.545074 141.616745,201.701462 146.020081,188.863602 
	C146.175858,188.409454 146.622391,188.005859 146.646790,187.562927 
	C147.599747,170.251221 158.986664,156.833267 164.070480,141.038025 
	C166.704895,132.852997 173.197189,128.775314 182.039337,128.997192 
	C187.145905,129.125351 192.325699,129.566116 196.651031,125.914703 
	C196.959839,125.653992 197.484131,125.510445 197.897034,125.531570 
	C205.516296,125.921341 207.200424,123.779465 208.109177,115.651390 
	C209.359177,104.470856 205.905701,94.730659 200.751358,85.196457 
	C199.638687,83.138290 199.160522,80.536598 199.077179,78.161156 
	C198.853104,71.774605 198.899643,65.373108 199.021347,58.981022 
	C199.282410,45.270134 204.224945,33.177711 213.962357,23.801762 
	C224.803192,13.363347 240.217163,10.741600 255.117355,19.149195 
	C267.897400,26.360453 275.591095,49.258186 274.771515,64.076057 
	C273.822174,81.239433 265.213196,97.026062 267.803101,114.593369 
	C268.964203,122.469276 268.335632,121.626419 275.941406,124.218788 
	C286.811768,127.923836 298.441010,127.080421 308.978271,130.519135 
	C315.728302,132.721939 321.257446,138.991089 326.985779,143.847992 
	C329.461365,145.947006 331.719177,148.816650 332.920105,151.801300 
	C335.659821,158.610199 338.717377,165.555740 339.762360,172.720474 
	C341.361145,183.682220 342.102692,194.634171 345.801636,205.313919 
	C348.321381,212.589035 348.209839,220.731659 350.118927,228.272690 
	C352.791595,238.829849 351.543762,250.158859 358.186768,260.079498 
	C361.378998,264.846680 360.685364,272.052551 362.584442,277.882751 
	C366.643250,290.343170 371.034882,302.707123 375.717133,314.947235 
	C377.879456,320.599945 381.224091,325.788788 383.702179,331.335632 
	C386.109680,336.724396 388.094330,342.302032 390.438080,348.235809 
	C389.641693,348.709991 388.513885,349.720734 387.204132,350.095062 
	C383.852386,351.053009 382.973907,353.804779 383.696136,356.327637 
	C384.140137,357.878693 386.781433,358.819855 388.468109,359.988678 
	C389.420563,360.648712 390.403564,361.282471 391.434052,361.807892 
	C392.971863,362.591919 394.503937,363.673187 396.143951,363.916290 
	C400.777618,364.603333 406.155121,367.265717 405.505035,373.239441 
	C405.450745,373.738464 406.218903,374.275848 406.395233,374.858856 
	C408.624603,382.229675 410.688660,389.654633 413.134308,396.952026 
	C413.568542,398.247711 415.401306,399.372375 416.839935,399.984070 
	C424.464874,403.226044 432.204529,406.198120 439.829132,409.440857 
	C442.546265,410.596436 445.386292,413.732574 447.556427,413.243164 
	C449.579590,412.786926 450.743591,408.687317 452.367310,406.245697 
	C453.899384,403.941895 455.537659,401.708740 457.103668,399.480804 
	C452.120636,394.953705 451.504669,392.882233 455.129333,387.665283 
	C460.343353,380.160858 461.619110,371.834900 462.130615,363.033142 
	C462.380768,358.728088 464.118591,354.527435 464.949036,350.234253 
	C466.403625,342.714172 467.492920,335.118256 469.149323,327.645874 
	C469.599243,325.616241 471.118683,323.184265 472.861023,322.198608 
	C478.435272,319.045105 484.285919,316.576447 491.046326,316.898010 
	C494.780212,317.075592 498.624390,316.507446 502.311462,315.751556 
	C508.934326,314.393799 510.891785,306.622223 506.375610,299.997772 
	C503.076965,295.159180 499.021484,290.720886 496.456482,285.533905 
	C494.360748,281.295959 493.172882,276.247772 492.976898,271.501190 
	C492.444427,258.604462 487.760651,244.817825 496.166107,233.211609 
	C501.980988,225.182449 510.478607,219.445831 521.257996,219.007385 
	C529.528564,218.670944 537.865540,218.896927 545.185486,223.136322 
	C554.066345,228.279816 560.078857,235.885376 559.900452,246.649094 
	C559.715637,257.802063 561.913147,269.219391 557.067200,279.996918 
	C555.926208,282.534485 555.021057,285.196899 553.686523,287.625549 
	C546.176880,301.292145 553.634644,314.710846 569.016479,316.009491 
	C575.996338,316.598755 583.003723,317.046143 589.930054,318.037018 
	C597.925415,319.180756 607.138916,331.123871 610.091187,338.903137 
	C614.677368,350.988220 612.960693,364.029144 618.003540,376.128296 
	C621.787292,385.206329 621.986694,395.772003 623.850830,405.662354 
	C624.178223,407.399445 624.682922,409.144104 625.391968,410.759674 
	C626.822327,414.019043 627.954346,416.945282 623.528076,419.011017 
	C622.740906,419.378418 622.173523,421.755493 622.554138,422.834290 
	C624.893616,429.465332 627.565979,435.978180 630.045837,442.561127 
	C630.481384,443.717102 630.727112,445.017944 630.729736,446.252625 
	C630.771484,465.751129 630.792908,485.249908 630.712524,504.748169 
	C630.703308,506.972443 630.388977,509.316193 629.633362,511.392426 
	C627.877808,516.215881 630.004822,519.535889 633.065002,522.928406 
	C636.961243,527.247803 634.627319,532.612061 634.304932,537.371826 
	C634.212219,538.740479 629.760071,540.134033 627.129272,540.928894 
	C623.891479,541.907104 620.430481,542.120483 617.135315,542.942261 
	C613.844421,543.762939 612.921753,541.091309 612.209167,539.283081 
	C609.553223,532.543213 608.039490,525.833679 611.788940,518.635254 
	C613.055542,516.203491 611.969543,512.415039 611.603149,509.288330 
	C610.480225,499.704498 608.457092,490.162415 608.172852,480.562988 
	C607.918396,471.970184 609.506226,463.322815 610.212036,455.469788 
	C605.997192,450.102600 601.929871,444.923279 597.294189,439.020203 
	C597.262390,439.022430 595.823608,439.122467 594.004700,439.248962 
	C594.004700,444.004120 593.910645,448.646332 594.023438,453.283508 
	C594.297668,464.557770 595.089355,475.838470 594.854858,487.099518 
	C594.692200,494.910431 592.946045,502.675964 592.349854,510.495483 
	C592.053894,514.377380 592.862244,518.331848 592.984070,522.259277 
	C593.369934,534.695862 593.891052,547.134399 593.927368,559.573486 
	C593.955383,569.178833 593.012329,578.787903 593.066284,588.392090 
	C593.178528,608.336365 594.035400,628.282043 593.844971,648.220093 
	C593.748596,658.317566 591.697021,668.382263 591.181458,678.494995 
	C590.846252,685.071411 591.660400,691.709045 592.006042,698.316833 
	C592.437195,706.560486 588.543884,712.671082 581.167236,715.184937 
	C574.500122,717.457031 567.316833,717.010681 561.322449,711.955383 
	C558.208618,709.329407 554.878601,706.959473 551.768372,704.329529 
	C544.339600,698.047913 542.225708,680.882751 554.387634,674.730164 
	C553.922852,668.345032 553.118042,662.018860 553.084412,655.688538 
	C553.036987,646.762573 551.566895,638.344299 548.645508,629.797607 
	C546.752380,624.259155 547.581299,617.596680 548.027039,611.499084 
	C548.648560,602.996033 545.987366,595.426025 542.974854,587.784607 
	C540.856079,582.410217 539.111328,576.888306 536.838135,570.400818 
	C534.415344,576.358276 531.685547,581.637939 530.174500,587.246033 
	C528.996765,591.616882 529.470093,596.410889 528.971375,600.990906 
	C527.923706,610.611938 526.687317,620.212341 525.598816,629.829163 
	C525.283936,632.611206 525.146423,635.418030 525.042053,638.217773 
	C524.947815,640.745789 525.009888,643.279602 525.001587,646.266113 
z"/>
</svg>